:SAMPLES-PER-SECOND 24
:FULLY-SPECIFIED
:DEGREES
407
root  5.38301 40.642 -16.9698 2.26422 -14.9766 26.3865
RightUpLeg  -10.9892 14.9995 -23.215
RightLeg  24.2597 17.891 8.41765
RightFoot  -8.68586 0.25304 -13.3125
RightToes  -1.74623e-010 0 -2.59999e-017
Spine  17.2288 0.463266 -2.95361
Spine1  17.2975 5.46667 -16.1989
HEad  8.2503 15.115 -10.5654
LeftShoulder1  2.1799 -3.58369 -24.5593
LeftArm  -7.5923 10.5843 -21.7794
LeftForeArm  108.039 -78.0425 -118.394
LeftHand  -0.130787 4.16495 11.1775
RightShoulder  2.90661 5.47604 26.3535
RightArm  10.974 15.9024 36.1687
RightForeArm  128.461 76.1422 132.659
RightHand  -0.418024 0.491689 -8.33632
LeftUpLeg  -61.1134 5.87066 -12.4527
LeftLeg  84.7466 -0.666025 -6.91877
LeftFoot  10.4667 2.81295 -14.9218
LeftToes  -6.27559e-011 -2.10356e-011 8.24929e-012
408
root  6.11506 40.3091 -16.4015 -4.3197 -23.3996 23.3135
RightUpLeg  -6.09936 10.016 -18.7873
RightLeg  24.9799 16.2931 7.91997
RightFoot  -11.6998 -0.118887 -12.7921
RightToes  -1.74623e-010 0 -2.59999e-017
Spine  17.6691 0.792934 -2.93152
Spine1  17.3851 5.775 -16.1688
HEad  7.48547 14.4261 -7.64506
LeftShoulder1  2.18441 -3.52592 -24.8904
LeftArm  -6.07634 9.76884 -24.3122
LeftForeArm  98.1261 -78.2064 -113.966
LeftHand  -0.142575 4.03317 11.1246
RightShoulder  2.83771 5.31338 26.1591
RightArm  9.75751 13.7253 34.4507
RightForeArm  126.881 76.5739 130.672
RightHand  -0.390949 -0.0430537 -8.52706
LeftUpLeg  -66.1446 7.12089 -11.5158
LeftLeg  98.3539 1.13373 -7.56941
LeftFoot  10.3214 2.13414 -11.4967
LeftToes  -6.27559e-011 -2.10356e-011 8.24929e-012
409
root  6.84067 39.8044 -15.4933 -11.0478 -33.3329 21.9652
RightUpLeg  -2.27319 12.3292 -17.3498
RightLeg  27.4451 19.6678 10.5623
RightFoot  -14.7682 -0.477623 -12.5862
RightToes  -1.74623e-010 0 -2.59999e-017
Spine  17.7247 1.14523 -1.90095
Spine1  16.9811 6.4183 -16.8266
HEad  6.54194 12.4317 -5.45261
LeftShoulder1  2.20293 -3.5118 -25.2322
LeftArm  -5.13281 10.7369 -26.9996
LeftForeArm  100.418 -77.6986 -118.099
LeftHand  -0.114411 4.39495 11.8201
RightShoulder  2.67942 5.02399 25.3632
RightArm  9.45443 13.6966 33.4923
RightForeArm  124.472 77.0313 128.192
RightHand  -0.353932 -0.575069 -8.5213
LeftUpLeg  -69.9437 8.56868 -10.4322
LeftLeg  109.871 3.4398 -9.19732
LeftFoot  11.6979 1.72867 -8.82344
LeftToes  -6.27559e-011 -2.10356e-011 8.24929e-012
410
root  7.43838 39.7215 -14.4214 -18.502 -43.5387 24.0324
RightUpLeg  -0.224637 18.5327 -18.4874
RightLeg  29.8421 25.2525 14.6531
RightFoot  -14.5364 -0.45154 -12.622
RightToes  -1.74623e-010 0 -2.59999e-017
Spine  17.0807 1.40308 -1.80449
Spine1  17.0995 7.20979 -18.0822
HEad  4.9612 6.55801 -4.06351
LeftShoulder1  2.31504 -3.59184 -26.5071
LeftArm  -4.62248 12.032 -28.9459
LeftForeArm  102.802 -77.4932 -120.06
LeftHand  -0.100598 4.60172 12.9017
RightShoulder  2.67076 5.00571 25.3287
RightArm  9.82844 15.0761 34.6129
RightForeArm  118.616 77.9737 121.962
RightHand  -0.375522 -0.539179 -8.97915
LeftUpLeg  -71.1709 10.1545 -10.6619
LeftLeg  115.428 4.98282 -10.1016
LeftFoot  11.74 1.39779 -7.19221
LeftToes  -6.27559e-011 -2.10356e-011 8.24929e-012
411
root  7.8657 40.0837 -13.262 -24.7176 -51.4704 27.416
RightUpLeg  0.171468 21.5532 -19.8045
RightLeg  30.7925 27.0665 16.1575
RightFoot  -11.3892 -0.0843266 -11.8017
RightToes  -1.74623e-010 0 -2.59999e-017
Spine  15.7639 1.31079 -2.06723
Spine1  17.0787 7.23651 -18.4456
HEad  2.44748 -4.32728 -2.20436
LeftShoulder1  2.38346 -3.64711 -27.237
LeftArm  -2.74291 11.9234 -31.3461
LeftForeArm  97.7895 -78.1208 -114.425
LeftHand  -0.101972 4.61752 13.4379
RightShoulder  2.77725 5.15438 26.0502
RightArm  10.0251 14.2357 37.6559
RightForeArm  111.059 78.756 114.534
RightHand  -0.407656 -0.197891 -9.14343
LeftUpLeg  -70.1416 9.20268 -10.3108
LeftLeg  114.484 5.10173 -10.743
LeftFoot  12.4134 1.52828 -7.62067
LeftToes  -6.27559e-011 -2.10356e-011 8.24929e-012
412
root  8.11625 40.5424 -12.085 -29.0308 -58.9283 30.2217
RightUpLeg  -0.440946 18.055 -19.7251
RightLeg  30.0403 22.5808 13.3162
RightFoot  -7.75544 0.177217 -7.54637
RightToes  -1.74623e-010 0 -2.59999e-017
Spine  14.2592 1.4913 -1.36274
Spine1  16.2617 7.20451 -17.8468
HEad  -0.243633 -17.8854 1.41029
LeftShoulder1  2.36478 -3.67559 -26.831
LeftArm  1.03961 10.5775 -33.7233
LeftForeArm  92.2985 -78.5773 -108.768
LeftHand  -0.115892 4.50753 13.6599
RightShoulder  2.92159 5.32119 27.1191
RightArm  9.71753 10.8124 40.9224
RightForeArm  102.96 79.1824 107.802
RightHand  -0.405983 0.00572522 -8.78761
LeftUpLeg  -67.1189 7.50946 -7.11932
LeftLeg  109.4 4.155 -11.2227
LeftFoot  12.5817 1.58542 -7.83863
LeftToes  -6.27559e-011 -2.10356e-011 8.24929e-012
413
root  8.22674 40.8485 -10.9139 -36.5004 -67.7121 36.0276
RightUpLeg  -0.866065 5.32772 -19.482
RightLeg  28.7111 15.8278 8.97462
RightFoot  -5.03406 -0.00332108 -0.722741
RightToes  -1.74623e-010 0 -2.59999e-017
Spine  13.4992 2.23602 0.327841
Spine1  15.0299 7.99563 -17.4963
HEad  -3.18352 -30.2294 5.91291
LeftShoulder1  2.34315 -3.62326 -26.7676
LeftArm  5.35379 8.89255 -33.8208
LeftForeArm  93.7129 -78.3888 -110.945
LeftHand  -0.105586 4.5962 13.6919
RightShoulder  3.02997 5.47059 27.7999
RightArm  9.84928 6.83599 43.6868
RightForeArm  88.2932 79.5616 95.1431
RightHand  -0.480507 0.495536 -9.56217
LeftUpLeg  -61.18 8.39954 -2.64663
LeftLeg  102.228 2.4482 -10.6318
LeftFoot  12.7775 1.43797 -7.10433
LeftToes  -6.27559e-011 -2.10356e-011 8.24929e-012
414
root  8.17024 40.6597 -9.73321 -54.229 -75.7645 51.4459
RightUpLeg  0.71582 -12.1011 -19.3786
RightLeg  26.3522 6.45182 3.24309
RightFoot  -5.90182 -0.228748 3.9677
RightToes  -1.74623e-010 0 -2.59999e-017
Spine  13.5009 2.7893 1.71287
Spine1  13.8874 8.46657 -16.6206
HEad  -5.78528 -39.1976 9.65008
LeftShoulder1  2.27011 -3.53116 -26.1359
LeftArm  8.06659 8.21705 -32.7917
LeftForeArm  101.906 -77.5211 -119.637
LeftHand  -0.022999 5.32067 12.8622
RightShoulder  2.9491 5.44307 26.9707
RightArm  10.9573 4.21632 46.8979
RightForeArm  61.5304 78.8268 69.0744
RightHand  -0.629592 1.19765 -11.2192
LeftUpLeg  -52.579 10.326 1.64228
LeftLeg  93.4441 0.690439 -10.0123
LeftFoot  14.8597 1.96666 -8.83235
LeftToes  -6.27559e-011 -2.10356e-011 8.24929e-012
415
root  7.99557 39.933 -8.54753 -94.5554 -80.1385 90.0249
RightUpLeg  2.38631 -24.2541 -20.162
RightLeg  23.7291 1.01603 0.231943
RightFoot  -10.1727 -0.111755 3.8293
RightToes  -1.74623e-010 0 -2.59999e-017
Spine  12.2312 2.71319 2.39256
Spine1  14.0038 8.22984 -15.1027
HEad  -7.64033 -44.2516 12.6849
LeftShoulder1  2.17999 -3.50227 -24.9337
LeftArm  8.47893 8.70925 -30.8322
LeftForeArm  112.913 -75.8873 -130.186
LeftHand  0.0625431 6.17904 11.9524
RightShoulder  2.80293 5.29134 25.8346
RightArm  13.2551 5.13714 49.0461
RightForeArm  38.52 75.3502 44.5216
RightHand  -0.650802 1.14631 -11.6706
LeftUpLeg  -43.2946 10.6486 5.91497
LeftLeg  83.0386 -1.22808 -10.686
LeftFoot  15.7874 3.0153 -12.9059
LeftToes  -6.27559e-011 -2.10356e-011 8.24929e-012
416
root  7.77388 39.103 -7.24451 -143.569 -76.6488 138.352
RightUpLeg  -0.0727265 -24.3506 -21.0499
RightLeg  25.1896 5.03432 2.37788
RightFoot  -14.0057 -0.0080222 3.57084
RightToes  -1.74623e-010 0 -2.59999e-017
Spine  9.56936 2.41438 3.00361
Spine1  15.6567 7.93436 -13.7893
HEad  -10.1937 -45.3602 15.1226
LeftShoulder1  2.15763 -3.34899 -25.3231
LeftArm  7.7704 9.11172 -27.6758
LeftForeArm  118.028 -74.7884 -135.139
LeftHand  0.137979 6.94721 11.8421
RightShoulder  2.86706 5.28759 26.6052
RightArm  17.069 10.1987 47.5061
RightForeArm  25.1712 69.2509 28.5086
RightHand  -0.63875 1.74393 -10.6083
LeftUpLeg  -33.8644 7.72651 9.4203
LeftLeg  71.0366 -3.76762 -11.203
LeftFoot  11.4787 2.64242 -13.3863
LeftToes  -6.27559e-011 -2.10356e-011 8.24929e-012
417
root  7.44743 38.318 -5.7553 -164.002 -68.5696 157.789
RightUpLeg  -4.9236 -18.7763 -22.4148
RightLeg  31.0149 11.9752 7.49658
RightFoot  -16.0283 0.101487 5.09214
RightToes  -1.74623e-010 0 -2.59999e-017
Spine  8.3927 1.94504 2.51071
Spine1  16.6906 6.78613 -12.0536
HEad  -12.1047 -43.4838 15.1915
LeftShoulder1  2.14382 -3.15335 -26.0641
LeftArm  7.30237 9.57261 -28.0452
LeftForeArm  114.757 -75.7994 -130.919
LeftHand  0.205778 7.91229 10.7225
RightShoulder  3.03572 5.43167 28.0171
RightArm  21.191 16.0849 45.1217
RightForeArm  14.0966 56.2945 15.9139
RightHand  -0.903025 3.9847 -11.4234
LeftUpLeg  -24.5925 -0.471214 10.27
LeftLeg  58.414 -4.9 -8.03753
LeftFoot  4.52302 0.929542 -6.68946
LeftToes  -6.27559e-011 -2.10356e-011 8.24929e-012
418
root  6.93869 37.7434 -4.1788 -173.558 -61.6485 166.465
RightUpLeg  -8.38786 -16.3151 -22.8042
RightLeg  34.429 15.7644 11.1093
RightFoot  -14.863 0.0980898 6.46644
RightToes  -1.74623e-010 0 -2.59999e-017
Spine  8.46573 1.29403 0.982666
Spine1  15.5062 4.4096 -8.25382
HEad  -9.82351 -40.5049 12.714
LeftShoulder1  2.13975 -3.27049 -25.4236
LeftArm  8.25482 9.4304 -32.9104
LeftForeArm  108.943 -77.3067 -122.815
LeftHand  0.216674 8.54312 9.13184
RightShoulder  3.07701 5.47784 28.3118
RightArm  25.0009 19.3054 44.5571
RightForeArm  0.511516 35.6509 8.02725
RightHand  -1.43752 4.7369 -16.654
LeftUpLeg  -17.0399 -10.9329 9.48299
LeftLeg  47.5554 -3.07834 -3.17334
LeftFoot  -1.62875 0.192679 -2.15281
LeftToes  -6.27559e-011 -2.10356e-011 8.24929e-012
419
root  6.36 37.5245 -2.55929 -179.473 -55.771 172.452
RightUpLeg  -10.2314 -14.6329 -21.9855
RightLeg  32.5194 18.3419 11.9922
RightFoot  -11.7793 -0.0478351 8.64073
RightToes  -1.74623e-010 0 -2.59999e-017
Spine  8.07379 0.872613 -1.71542
Spine1  13.4373 1.87284 -2.90953
HEad  -5.35839 -37.3628 10.4784
LeftShoulder1  2.15357 -3.51616 -24.4745
LeftArm  11.9964 5.71262 -37.8686
LeftForeArm  104.502 -77.9479 -117.829
LeftHand  0.231208 8.44267 9.94565
RightShoulder  3.22467 5.58937 29.5411
RightArm  15.0982 20.3894 40.5146
RightForeArm  -7.80403 14.9061 8.96086
RightHand  -1.7943 2.9242 -24.9549
LeftUpLeg  -11.5874 -16.374 8.46301
LeftLeg  40.5724 -0.215378 0.208602
LeftFoot  -8.37457 0.198006 -6.34143
LeftToes  -6.27559e-011 -2.10356e-011 8.24929e-012
